<svg version="1.1" xmlns="http://www.w3.org/2000/svg" xmlns:xlink="http://www.w3.org/1999/xlink" x="0px" y="0px"
   viewBox="0 0 159 161.1" enable-background="new 0 0 159 161.1" xml:space="preserve">
<g id="Layer_2">
  <path fill="#00ACCA" d="M139.6,91.5c12.6-6.9,14.9-15.6,0.2-24.3L36.9,11C24.4,3.9,14.1,9.7,14.1,24v110.8
    c0,18.2,9.5,20,22.1,13.2l11.8-6.6c1.9-1.3,6.4-5.1,5.2-10.3c-1.2-4.8-5.3-6.3-10.1-5c-7,3.8-11.5,0-11.5-7.9V39.2
    c0-7.9,5.7-11.2,12.6-7.2l71,40.6c6.9,3.9,6.9,10.3-0.1,14.1l-43.9,22.8V82.6c0-4.1-3.4-7.5-7.5-7.5c-4.1,0-7.5,3.4-7.5,7.5v38.1
    c0,4.1,3.6,7.1,7.5,8.5c1.6,0.6,4.8,0.7,7.1-0.4L139.6,91.5z"/>
  <circle fill="#00ACCA" cx="64.1" cy="62.4" r="7.9"/>
</g>
</svg>