<svg version="1.1" id="Layer_1" xmlns="http://www.w3.org/2000/svg" x="0" y="0" viewBox="0 0 363.2 72" xml:space="preserve"><style>.st0{fill:#59595b}</style><path class="st0" d="M112.7 47.6h12.8c7.1 0 10.6 2.4 10.6 7.1 0 3.2-1.8 5.4-5.4 6.4l6.9 10.3h-4.4l-6.3-9.6h-10.4v9.6h-3.7V47.6h-.1zm12.4 11.3c4.7 0 7-1.4 7-4.2 0-1.5-.5-2.5-1.6-3.2-1.1-.7-2.8-1-5.3-1h-8.8v8.4h8.7zM141.9 47.6h21.8v2.9h-18v7.2h17.1v2.9h-17.1v7.9h18.8l-.7 2.9h-21.9V47.6zM169.6 47.6h20.7v2.9h-16.9V58h16.1v2.9h-16.1v10.5h-3.8V47.6zM195 47.6h21.8v2.9h-18v7.2h17.1v2.9h-17.1v7.9h18.8l-.7 2.9H195V47.6zM222.3 47.6h12.8c7.1 0 10.6 2.4 10.6 7.1 0 3.2-1.8 5.4-5.4 6.4l6.9 10.3h-4.4l-6.3-9.6h-10.4v9.6h-3.7V47.6h-.1zm12.4 11.3c4.7 0 7-1.4 7-4.2 0-1.5-.5-2.5-1.6-3.2-1.1-.7-2.8-1-5.3-1H226v8.4h8.7zM251.1 47.6h21.8v2.9h-18v7.2H272v2.9h-17.1v7.9h18.8l-.7 2.9h-21.9V47.6zM278.5 47.6h3.7l18.2 19.1V47.6h3.7v23.8h-3.7l-18.2-19.1v19.1h-3.7V47.6zM336 54.8l-3.7.5c-.8-1.9-1.9-3.3-3.4-4.1-1.5-.8-3.5-1.3-6.2-1.3-2.2 0-4.1.4-5.7 1.2-1.6.8-2.8 1.9-3.7 3.3-.9 1.4-1.3 3.1-1.3 5.1 0 2 .4 3.7 1.3 5.1.9 1.4 2.1 2.5 3.7 3.3 1.6.8 3.5 1.1 5.8 1.1 2.8 0 5-.4 6.6-1.3 1.6-.9 2.6-2.3 3.1-4.2h3.9c-.5 2.7-2 4.8-4.3 6.3-2.3 1.4-5.4 2.2-9.3 2.2-3 0-5.6-.5-7.8-1.5s-3.9-2.5-5.1-4.3c-1.2-1.9-1.8-4.1-1.8-6.6s.6-4.7 1.8-6.6c1.2-1.9 2.9-3.3 5.1-4.4 2.2-1 4.8-1.6 7.7-1.6 7.2 0 11.6 2.6 13.3 7.8zM340.6 47.6h21.8v2.9h-18v7.2h17.1v2.9h-17.1v7.9h18.8l-.7 2.9h-21.9V47.6z"/><g><path class="st0" d="M112.7 1h8.8v15.4h15.6V1h8.8v40h-8.8V24.3h-15.6V41h-8.8V1zM152.1 9.7c1.6-3.2 3.8-5.6 6.7-7.2C161.7.9 165.1 0 169.1 0c3.9 0 7.3.8 10.2 2.4 2.9 1.6 5.1 4 6.6 7.1s2.3 6.9 2.3 11.3c0 4.5-.8 8.3-2.4 11.5-1.6 3.2-3.8 5.6-6.7 7.2-2.9 1.7-6.3 2.5-10.3 2.5-3.9 0-7.3-.8-10.2-2.4-2.9-1.6-5.1-4-6.7-7.1-1.6-3.1-2.4-6.9-2.4-11.4s1-8.3 2.6-11.4zM169 7.6c-3.4 0-5.9 1.2-7.6 3.6-1.7 2.4-2.5 5.6-2.5 9.8s.8 7.5 2.5 9.8c1.7 2.4 4.2 3.6 7.6 3.6 3.3 0 5.8-1.2 7.5-3.6 1.7-2.4 2.5-5.6 2.5-9.8s-.8-7.5-2.5-9.8c-1.7-2.4-4.2-3.6-7.5-3.6zM196.8 36.6c-3.3-3.6-5-8.7-5-15.3 0-4.5.8-8.4 2.4-11.5 1.6-3.2 3.8-5.6 6.6-7.2 2.8-1.7 6.2-2.5 10-2.5 5 0 8.8 1.2 11.4 3.6 2.6 2.4 4.3 5.8 5.1 10.1l-8.7 1.1c-.5-2.4-1.4-4.1-2.6-5.4-1.2-1.2-3-1.8-5.5-1.8-3 0-5.3 1.2-6.9 3.5-1.6 2.4-2.4 5.6-2.4 9.8 0 4.3.8 7.6 2.4 9.9 1.6 2.4 4 3.5 7.1 3.5 2.7 0 4.6-.7 5.9-2 1.3-1.4 2.1-3.2 2.4-5.5h8.8c-.4 4.6-2 8.2-4.9 11-2.9 2.8-7 4.2-12.4 4.2-5.8-.1-10.4-1.9-13.7-5.5zM232 1h8.8v16.6L255.6 1h9.5l-13.4 14.9L266.5 41h-9.7l-11-18.8-5 5.5V41H232V1zM270 1h27.7v7.1h-19V17h17.9v7.1h-18v9.7h20.2l-.9 7.1h-28L270 1zM301.1 1h9.6l8.4 17 8.6-17h9.2l-13.4 24.1V41h-8.9V25.1L301.1 1z"/></g><g><path d="M102.2 0v72s-14.9-10-37-10C47.4 62 10 65 0 16.1c0 0 6.8 5.9 20.7 5.9 22.5 0 29.9-22 81.5-22z" fill="#fff"/><path d="M45.7 40.5l2.7 1.9-1.9 2.6-2.7-1.9 1.9-2.6zm-5.7-.1l2.7 1.9 1.9-2.7-2.7-1.9-1.9 2.7zm11.1-2l-2.7-1.9-1.8 2.7 2.7 1.9 1.8-2.7zm51.1 4.6v29s-14.9-10-37-10C47.4 62 10 65 0 16.1c0 0 6.8 5.9 20.7 5.9 22.5 0 29.9-22 81.5-22v21.9c-3.7 5.2-15.7 10.5-30.4 13-9.5 1.6-18.4 1.7-24.8.6l.3.2-1.9 2.7-2.7-1.9 1.2-1.7c-.4-.1-.7-.2-1.1-.3l-1 1.4-2.5-1.9.5-.8c-.5-.3-.9-.5-1.3-.8l-.5.7-.9-.6.6 3.6.6-.9 2.7 1.9-1.9 2.7-.9-.6.5 3 .4-.5 2.7 1.9-1.9 2.7-.5-.4.3 1.7c1 6.1 16.8 8.6 35.2 5.4 11.9-2 22-5.9 27.3-10zM41.1 26.9c.9 5.2 14.4 7.3 30.1 4.7C87 28.9 99 22.5 98.1 17.3 97.2 12 83.7 10 68 12.6s-27.8 9.1-26.9 14.3zm11.2 18.2l-2.7-1.9-1.9 2.7 2.7 1.9 1.9-2.7zm2.7-4l-2.7-1.9-1.9 2.7 2.7 1.9 1.9-2.7zM49.5 49l-2.7-1.9-1.9 2.7 2.7 1.9 1.9-2.7zm-5.7-.1l1.9-2.7-2.7-1.9-1.9 2.7 2.7 1.9z" fill="#0098d4"/></g></svg>