<?xml version="1.0" encoding="UTF-8"?>
<svg id="Layer_2" xmlns="http://www.w3.org/2000/svg" version="1.1" viewBox="0 0 323.4 189.4">
  <!-- Generator: Adobe Illustrator 29.4.0, SVG Export Plug-In . SVG Version: 2.1.0 Build 152)  -->
  <defs>
    <style>
      .st0 {
        fill: #79de00;
      }
    </style>
  </defs>
  <g id="Layer_1-2">
    <path class="st0" d="M226.6,5.7c0-3.2,2.6-5.7,5.8-5.7,1.6,0,3,.7,4.1,1.7l83.1,84c2.4,2.4,3.8,5.7,3.8,9.3s-1.5,6.9-3.9,9.3l-84,83.1c-1.1,1-2.5,1.7-4.1,1.7-3.2,0-5.7-2.6-5.7-5.8l1-177.7h0Z"/>
    <path class="st0" d="M113.1,183.6c0,3.2,2.6,5.8,5.8,5.8s3-.6,4.1-1.7l83.6-83.6c2.4-2.4,3.9-5.7,3.9-9.3s-1.5-6.9-3.9-9.3L122.9,1.9c-1-1-2.5-1.7-4.1-1.7-3.2,0-5.8,2.6-5.8,5.8v177.7Z"/>
    <path class="st0" d="M0,183.6c0,3.2,2.6,5.8,5.8,5.8s3-.6,4.1-1.7l83.6-83.6c2.4-2.4,3.9-5.7,3.9-9.3s-1.5-6.9-3.9-9.3L9.8,1.9C8.8.9,7.3.2,5.8.2,2.6.2,0,2.8,0,6v177.7Z"/>
  </g>
</svg>