<?xml version="1.0" encoding="UTF-8"?>
<svg id="Layer_1" data-name="Layer 1" xmlns="http://www.w3.org/2000/svg" viewBox="0 0 702.84 316.92">
  <defs>
    <style>
      .cls-1 {
        fill: #e1251b;
      }
    </style>
  </defs>
  <path class="cls-1" d="M16.9,281.85h11.17l16.9,34.15h-11.02l-2.69-5.57H12.99l-2.64,5.57H0l16.9-34.15ZM22.13,291.44l-5.89,12.25h11.83l-5.84-12.25h-.1ZM61.27,282h14.82l10.46,21.54h.15l10.41-21.54h14.87v34h-10.15v-24.25h-.1l-11.83,24.25h-7.46l-11.83-24.25h-.1v24.25h-9.24v-34ZM120.36,282h33.86v7.61h-23.86v5.67h18.07v7.05h-18.07v6.08h23.86v7.61h-33.86v-34ZM161.22,282h17.31c3.48,0,6.56.4,9.21,1.2,2.66.8,4.86,1.92,6.62,3.37,1.76,1.45,3.08,3.21,3.96,5.28s1.32,4.39,1.32,6.94-.44,4.94-1.32,7.07-2.2,3.94-3.96,5.44c-1.76,1.5-3.97,2.65-6.62,3.47-2.66.82-5.73,1.23-9.21,1.23h-17.31v-34ZM171.42,289.96v18.07h6.8c3.62,0,6.39-.79,8.32-2.37,1.93-1.58,2.89-3.8,2.89-6.66s-.96-5.08-2.89-6.66c-1.93-1.58-4.7-2.37-8.32-2.37h-6.8ZM206.5,282h10.2v34h-10.2v-34ZM245.13,281.18c3.35,0,6.36.41,9.04,1.23,2.67.82,5.24,1.91,7.71,3.27l-4.01,7.35c-1.76-.95-3.66-1.78-5.69-2.48-2.03-.7-4.23-1.05-6.6-1.05-3.72,0-6.63.89-8.73,2.66-2.1,1.77-3.15,4.03-3.15,6.79s1.11,5.17,3.33,6.92c2.22,1.75,5.19,2.63,8.91,2.63,2.34,0,4.48-.36,6.45-1.07,1.96-.72,3.79-1.55,5.48-2.5l3.81,7.35c-2.3,1.29-4.81,2.37-7.51,3.24-2.71.87-5.74,1.3-9.09,1.3s-6.36-.44-9.03-1.33c-2.67-.88-4.93-2.12-6.78-3.7-1.85-1.58-3.26-3.46-4.24-5.64-.98-2.18-1.47-4.56-1.47-7.15s.5-4.87,1.5-7.05c1-2.18,2.43-4.06,4.29-5.64,1.86-1.58,4.13-2.83,6.8-3.75,2.67-.92,5.67-1.38,8.99-1.38ZM268.37,282h10.2v34h-10.2v-34ZM287.31,282h10.15l18.98,20.52h.1v-20.52h9.44v34h-10.1l-19.04-21.03h-.1v21.03h-9.44v-34ZM334.36,282h33.86v7.61h-23.86v5.67h18.07v7.05h-18.07v6.08h23.86v7.61h-33.86v-34ZM406.29,281.18c3.35,0,6.36.41,9.04,1.23,2.67.82,5.24,1.91,7.71,3.27l-4.01,7.35c-1.76-.95-3.66-1.78-5.69-2.48-2.03-.7-4.23-1.05-6.6-1.05-3.72,0-6.63.89-8.73,2.66-2.1,1.77-3.15,4.03-3.15,6.79s1.11,5.17,3.33,6.92c2.22,1.75,5.19,2.63,8.91,2.63,2.34,0,4.48-.36,6.45-1.07,1.96-.72,3.79-1.55,5.48-2.5l3.81,7.35c-2.3,1.29-4.81,2.37-7.51,3.24-2.71.87-5.74,1.3-9.09,1.3s-6.36-.44-9.03-1.33c-2.67-.88-4.93-2.12-6.78-3.7-1.85-1.58-3.26-3.46-4.24-5.64-.98-2.18-1.47-4.56-1.47-7.15s.5-4.87,1.5-7.05c1-2.18,2.43-4.06,4.29-5.64,1.86-1.58,4.13-2.83,6.8-3.75,2.67-.92,5.67-1.38,8.99-1.38ZM446.8,281.08c3.15,0,6.02.43,8.6,1.3,2.59.87,4.8,2.09,6.62,3.65,1.83,1.57,3.24,3.45,4.24,5.67,1,2.21,1.5,4.65,1.5,7.3s-.5,5.09-1.5,7.3c-1,2.21-2.41,4.1-4.24,5.67-1.83,1.57-4.04,2.78-6.62,3.65-2.59.87-5.46,1.3-8.6,1.3s-5.96-.43-8.53-1.3c-2.57-.87-4.77-2.08-6.6-3.65-1.83-1.57-3.24-3.45-4.24-5.67-1-2.21-1.5-4.65-1.5-7.3s.5-5.09,1.5-7.3c1-2.21,2.41-4.1,4.24-5.67,1.83-1.57,4.03-2.78,6.6-3.65,2.57-.87,5.41-1.3,8.53-1.3ZM446.8,288.94c-1.49,0-2.88.23-4.16.69-1.29.46-2.4,1.12-3.35,1.96-.95.85-1.7,1.9-2.26,3.14-.56,1.24-.84,2.66-.84,4.26s.28,2.98.84,4.24,1.31,2.31,2.26,3.17c.95.85,2.06,1.51,3.35,1.97,1.29.46,2.67.69,4.16.69s2.89-.23,4.19-.69c1.3-.46,2.44-1.11,3.4-1.97.96-.85,1.73-1.91,2.28-3.17s.84-2.67.84-4.24-.28-3.02-.84-4.26-1.32-2.29-2.28-3.14c-.96-.85-2.1-1.51-3.4-1.96-1.3-.46-2.7-.69-4.19-.69ZM474.26,282h14.82l10.46,21.54h.15l10.41-21.54h14.87v34h-10.15v-24.25h-.1l-11.83,24.25h-7.46l-11.83-24.25h-.1v24.25h-9.24v-34ZM533.35,282h20c4.74,0,8.44,1.06,11.12,3.19,2.67,2.13,4.01,4.99,4.01,8.6s-1.39,6.68-4.16,8.81c-2.78,2.13-6.5,3.19-11.17,3.19h-9.59v10.21h-10.2v-34ZM543.5,289.61v8.68h8.07c2.47,0,4.21-.39,5.23-1.18,1.02-.78,1.52-1.84,1.52-3.17s-.51-2.34-1.52-3.14c-1.02-.8-2.69-1.2-5.03-1.2h-8.27ZM584.06,281.85h11.17l16.9,34.15h-11.02l-2.69-5.57h-18.28l-2.64,5.57h-10.36l16.9-34.15ZM589.29,291.44l-5.89,12.25h11.83l-5.84-12.25h-.1ZM617.05,282h10.15l18.98,20.52h.1v-20.52h9.44v34h-10.1l-19.04-21.03h-.1v21.03h-9.44v-34ZM659.9,282h12.03l9.75,13.78,9.8-13.78h11.37l-16.34,21.54v12.46h-10.25v-12.46l-16.35-21.54Z"/>
  <path class="cls-1" d="M121.69,221c19.88,0,38.69-4.61,55.77-14.08,10.72,7.02,24.53,14.08,45.11,14.08s39.76-10.01,53.2-18.87c.22,4.92,1.84,9.17,4.89,12.32,4.17,4.29,10.65,6.55,18.81,6.55,14.19,0,32.01-5.5,52.98-17.3,5.71,11.17,18.19,17.3,33.66,17.3,16.61,0,36.5-5.08,57.23-15.37,4.97,9.78,15.76,15.37,28.56,15.37,16.44,0,33.24-5.74,54.13-18.47-.12,1.01-.19,1.89-.19,2.77,0,4.07,1.1,7.49,3.25,10.12,3.01,3.65,8.01,5.59,14.43,5.59,4.24,0,9.52-.7,14.57-2.61-13.39,13.68-26.01,29.65-35.75,44.61h25.55c26.97-38.18,68.53-75.15,84.54-91.1l-15.69-12.2c-19.91,19.67-46.45,41.95-63.32,41.95-2.75,0-3.93-1.17-4-2.92-.22-5.39,6.87-14.75,13.89-23.26l-16.43-12.78c-22.88,21.89-52.24,39.69-68.92,39.69-7.47,0-12.27-3.03-14.77-7.84,55.98-35.84,79.22-70.09,79.22-90.12,0-8.84-6.03-14.47-16.25-14.47-16.57,0-35.74,11.83-52.85,30.02-17.03,18.15-30.47,43.64-32.92,67.37-21.12,11.06-38.88,15.09-47.97,15.09-11.65,0-18.5-3.09-21.47-9.5v-.03c57.57-37.67,97.16-86.91,97.16-109.87,0-9.36-6.14-14.68-16.85-14.68-37.92,0-100.4,70.06-102.45,115.86v.14c-18.53,11.42-34.26,18.02-44.48,18.02-3.34,0-7.23-.91-7.23-5.52,0-6.07,8.24-16.9,17.16-27.15l.74-.87-15.77-12.32-.71.69c-20.21,20.71-46.07,45.14-72.75,45.14-10.74,0-19.73-3.17-29.34-8.36,15.84-12.84,31.68-30.64,50.96-57.48,49.55-9.72,85.02-39.06,104.65-58.78,12.47-12.52,31.63-36.51,31.63-58.81,0-10.84-6.96-18.94-20.28-18.94-45.01,0-97.32,73.22-131.46,120.36-6.55.9-13.22,1.54-19.83,1.54-38.68,0-56.9-16.28-56.9-32.51,0-24.68,35.51-49.93,78.15-54.88-2.64-5.93-5.18-10.91-8.04-17.38-43.15,4.46-92.49,34.78-92.49,73.88,0,9.88,3.27,19.07,10.18,26.92,12.8,14.49,36.24,22.78,64.33,22.78,3.09,0,6.25-.09,9.47-.28-14.67,18.66-27.09,31.87-38.94,41.31-12.48-9.04-32.38-17.74-53.02-17.74-24.27,0-42.42,11.79-42.42,29.2,0,21.55,24.24,27.81,39.27,27.81ZM461.38,175.36c8.82-29.43,45.29-65.75,56.65-65.75,1.13,0,1.72.86,1.72,2.11,0,.89-.32,2-.45,2.38-3.74,12.03-22.66,33.75-47.41,53.56-3.22,2.54-6.66,5.19-9.85,7.47l-.65.34v-.11ZM443.48,87.96c1.3,0,1.86.92,1.92,1.95.02.47-.11.98-.22,1.48-3.86,15.58-40.09,53.51-74.55,79.56,11.43-36.36,61.95-82.99,72.85-82.99ZM315.04,51.48c19.11-19.14,33.3-29.08,40.78-29.08,1.95,0,3.49,1.3,3.49,3.46,0,9.41-12.94,28.42-29.1,44.44-17.48,17.32-40.93,33.89-65.63,41.81,18.26-25.34,35.59-45.71,50.46-60.63ZM123.23,182.02c12.58,0,26.65,5.52,35.76,11.84-11.17,5.51-22.84,8.99-35.68,8.99-10.59,0-20.07-3.04-20.07-9.97,0-6.06,7.8-10.85,19.99-10.85ZM327.18,125.96c7.45,0,13.46,6.05,13.46,13.49s-6.01,13.49-13.46,13.49-13.5-6.04-13.5-13.49,6.03-13.49,13.5-13.49Z"/>
</svg>