<svg viewBox="0 0 362.97 175.2" xmlns="http://www.w3.org/2000/svg"><path d="m243.28 88.9c2.41 0 3.76 1.51 3.76 6.41s-1.35 6.41-3.76 6.41-3.76-1.51-3.76-6.41 1.35-6.41 3.76-6.41zm0 11.39c1.37 0 1.74-1.35 1.74-4.99s-.37-4.99-1.74-4.99-1.74 1.35-1.74 4.99.37 4.99 1.74 4.99zm4.58-1.17h2.02v2.34h-2.02zm3.18-1.04h1.92v.34c0 .94.51 1.77 1.65 1.77 1.42 0 1.79-1.38 1.79-2.86s-.39-2.68-1.69-2.68c-.85 0-1.46.46-1.65 1.15l-1.79-.07.62-6.58h6.05v1.62h-4.54l-.41 3.3.04.04c.55-.62 1.28-.98 2.11-.98 2.63 0 3.28 2.22 3.28 4.15 0 2.52-1.15 4.44-3.87 4.44-2.25 0-3.51-1.15-3.51-3.37zm11.36-6.16h1.81v1.12h.05c.48-.85 1.38-1.37 2.29-1.37 1.37 0 1.93.66 2.22 1.46.55-.92 1.26-1.46 2.41-1.46 1.35 0 2.32.69 2.32 2.54v7.26h-1.92v-6.55c0-1.26-.37-1.72-1.15-1.72s-1.53.6-1.53 1.86v6.41h-1.92v-6.55c0-1.26-.37-1.72-1.17-1.72s-1.51.62-1.51 1.86v6.41h-1.92v-9.55zm12.94-3.13h2.02v10.97h4.9v1.7h-6.92zm-267.4 38.69h-7.35c0-5.48 5.27-5.34 5.27-9.25 0-1.05-.44-1.9-1.56-1.9-1.51 0-1.76 1.35-1.76 2.63h-1.91c0-2.48 1.03-4.05 3.71-4.05s3.55 1.53 3.55 3.35c0 4.17-4.1 4.42-5.04 7.51h5.09v1.7zm1.44-2.34h2.02v2.34h-2.02zm3.44-1.05h1.92v.34c0 .94.51 1.77 1.65 1.77 1.42 0 1.79-1.38 1.79-2.86s-.39-2.68-1.69-2.68c-.85 0-1.46.46-1.65 1.15l-1.79-.07.62-6.58h6.05v1.62h-4.54l-.41 3.3.04.04c.55-.62 1.28-.98 2.11-.98 2.63 0 3.28 2.22 3.28 4.15 0 2.52-1.15 4.44-3.87 4.44-2.25 0-3.51-1.15-3.51-3.37zm11.09-6.16h1.81v1.12h.05c.48-.85 1.38-1.37 2.29-1.37 1.37 0 1.93.66 2.22 1.46.55-.92 1.26-1.46 2.41-1.46 1.35 0 2.32.69 2.32 2.54v7.26h-1.92v-6.55c0-1.26-.37-1.72-1.15-1.72s-1.53.6-1.53 1.86v6.41h-1.92v-6.55c0-1.26-.37-1.72-1.17-1.72s-1.51.62-1.51 1.86v6.41h-1.92v-9.55zm14.97 10.37c0 .59.53 1.14 1.38 1.14.99 0 1.61-.67 1.61-1.79v-1.54h-.04c-.35.83-1.24 1.31-2.17 1.31-2.22 0-2.86-2.18-2.86-4.81 0-2.09.32-4.92 3.03-4.92 1.14 0 1.92.73 2.09 1.42h.04v-1.17h1.81v9.09c0 2.32-.99 3.73-3.57 3.73-2.84 0-3.16-1.67-3.16-2.45h1.81zm1.35-2.42c1.49 0 1.65-1.88 1.65-3.39s-.2-3.28-1.53-3.28-1.62 1.42-1.62 3.19c0 1.63.07 3.48 1.49 3.48zm9.28-11.32h1.53v13.17h-1.53zm7.12 9.53h1.92v.34c0 .94.51 1.77 1.65 1.77 1.42 0 1.79-1.38 1.79-2.86s-.39-2.68-1.69-2.68c-.85 0-1.46.46-1.65 1.15l-1.79-.07.62-6.58h6.05v1.62h-4.54l-.41 3.3.04.04c.55-.62 1.28-.98 2.11-.98 2.63 0 3.28 2.22 3.28 4.15 0 2.52-1.15 4.44-3.87 4.44-2.25 0-3.51-1.15-3.51-3.37zm11.09-6.16h1.81v1.12h.05c.48-.85 1.38-1.37 2.29-1.37 1.37 0 1.93.66 2.22 1.46.55-.92 1.26-1.46 2.41-1.46 1.35 0 2.32.69 2.32 2.54v7.26h-1.92v-6.55c0-1.26-.37-1.72-1.15-1.72s-1.53.6-1.53 1.86v6.41h-1.92v-6.55c0-1.26-.37-1.72-1.17-1.72s-1.51.62-1.51 1.86v6.41h-1.92v-9.55zm14.97 10.37c0 .59.53 1.14 1.38 1.14.99 0 1.62-.67 1.62-1.79v-1.54h-.04c-.35.83-1.24 1.31-2.17 1.31-2.22 0-2.86-2.18-2.86-4.81 0-2.09.32-4.92 3.03-4.92 1.14 0 1.92.73 2.09 1.42h.04v-1.17h1.81v9.09c0 2.32-.99 3.73-3.57 3.73-2.84 0-3.16-1.67-3.16-2.45h1.81zm1.35-2.42c1.49 0 1.65-1.88 1.65-3.39s-.2-3.28-1.53-3.28-1.62 1.42-1.62 3.19c0 1.63.07 3.48 1.49 3.48zm9.28-11.32h1.53v13.17h-1.53zm7 .61h7.45v1.6c-1.99 2.56-3.67 6.96-3.96 10.72h-2.13c.28-3.73 2.15-7.95 4.13-10.51h-5.5v-1.81zm7.86 9.97h2.02v2.34h-2.02zm4.06-1.05h1.92v.34c0 .94.51 1.77 1.65 1.77 1.42 0 1.79-1.38 1.79-2.86s-.39-2.68-1.69-2.68c-.85 0-1.46.46-1.65 1.15l-1.79-.07.62-6.58h6.05v1.62h-4.54l-.41 3.3.04.04c.55-.62 1.28-.98 2.11-.98 2.63 0 3.28 2.22 3.28 4.15 0 2.52-1.15 4.44-3.87 4.44-2.25 0-3.51-1.15-3.51-3.37zm11.81-6.16h1.81v1.12h.05c.48-.85 1.38-1.37 2.29-1.37 1.37 0 1.93.66 2.22 1.46.55-.92 1.26-1.46 2.41-1.46 1.35 0 2.32.69 2.32 2.54v7.26h-1.92v-6.55c0-1.26-.37-1.72-1.15-1.72s-1.53.6-1.53 1.86v6.41h-1.92v-6.55c0-1.26-.37-1.72-1.17-1.72s-1.51.62-1.51 1.86v6.41h-1.92v-9.55zm14.7 10.37c0 .59.53 1.14 1.38 1.14.99 0 1.62-.67 1.62-1.79v-1.54h-.04c-.35.83-1.24 1.31-2.17 1.31-2.22 0-2.86-2.18-2.86-4.81 0-2.09.32-4.92 3.03-4.92 1.14 0 1.92.73 2.09 1.42h.04v-1.17h1.81v9.09c0 2.32-.99 3.73-3.57 3.73-2.84 0-3.16-1.67-3.16-2.45h1.81zm1.34-2.42c1.49 0 1.65-1.88 1.65-3.39s-.2-3.28-1.53-3.28-1.62 1.42-1.62 3.19c0 1.63.07 3.48 1.49 3.48zm9.29-11.32h1.53v13.17h-1.53zm10.13 12.92v-9.12h-2.61v-1.31h.2c1.21 0 2.59-.3 2.96-1.88v-.25h1.47v12.56zm7.78-12.56c2.41 0 3.76 1.51 3.76 6.41s-1.35 6.41-3.76 6.41-3.76-1.51-3.76-6.41 1.35-6.41 3.76-6.41zm0 11.39c1.37 0 1.74-1.35 1.74-4.99s-.37-4.99-1.74-4.99-1.74 1.35-1.74 4.99.37 4.99 1.74 4.99zm8.11-8.38h1.81v1.12h.05c.48-.85 1.38-1.37 2.29-1.37 1.37 0 1.93.66 2.22 1.46.55-.92 1.26-1.46 2.41-1.46 1.35 0 2.32.69 2.32 2.54v7.26h-1.92v-6.55c0-1.26-.37-1.72-1.15-1.72s-1.53.6-1.53 1.86v6.41h-1.92v-6.55c0-1.26-.37-1.72-1.17-1.72s-1.51.62-1.51 1.86v6.41h-1.92v-9.55zm14.7 10.37c0 .59.53 1.14 1.38 1.14.99 0 1.62-.67 1.62-1.79v-1.54h-.04c-.35.83-1.24 1.31-2.17 1.31-2.22 0-2.86-2.18-2.86-4.81 0-2.09.32-4.92 3.03-4.92 1.14 0 1.92.73 2.09 1.42h.04v-1.17h1.81v9.09c0 2.32-.99 3.73-3.57 3.73-2.84 0-3.16-1.67-3.16-2.45h1.81zm1.35-2.42c1.49 0 1.65-1.88 1.65-3.39s-.2-3.28-1.53-3.28-1.62 1.42-1.62 3.19c0 1.63.07 3.48 1.49 3.48zm9.28-11.32h1.53v13.17h-1.53zm10.14 12.92v-9.12h-2.61v-1.31h.2c1.21 0 2.59-.3 2.96-1.88v-.25h1.47v12.56zm11.45 0h-7.35c0-5.48 5.27-5.34 5.27-9.25 0-1.05-.44-1.9-1.56-1.9-1.51 0-1.76 1.35-1.76 2.63h-1.92c0-2.48 1.03-4.05 3.71-4.05s3.55 1.53 3.55 3.35c0 4.17-4.1 4.42-5.04 7.51h5.09v1.7zm1.44-2.34h2.02v2.34h-2.02zm3.44-1.05h1.92v.34c0 .94.51 1.77 1.65 1.77 1.42 0 1.79-1.38 1.79-2.86s-.39-2.68-1.69-2.68c-.85 0-1.46.46-1.65 1.15l-1.79-.07.62-6.58h6.05v1.62h-4.54l-.41 3.3.04.04c.55-.62 1.28-.98 2.11-.98 2.63 0 3.28 2.22 3.28 4.15 0 2.52-1.15 4.44-3.87 4.44-2.25 0-3.51-1.15-3.51-3.37zm11.09-6.16h1.81v1.12h.05c.48-.85 1.38-1.37 2.29-1.37 1.37 0 1.93.66 2.22 1.46.55-.92 1.26-1.46 2.41-1.46 1.35 0 2.32.69 2.32 2.54v7.26h-1.92v-6.55c0-1.26-.37-1.72-1.15-1.72s-1.53.6-1.53 1.86v6.41h-1.92v-6.55c0-1.26-.37-1.72-1.17-1.72s-1.51.62-1.51 1.86v6.41h-1.92v-9.55zm14.7 10.37c0 .59.53 1.14 1.38 1.14.99 0 1.62-.67 1.62-1.79v-1.54h-.04c-.35.83-1.24 1.31-2.17 1.31-2.22 0-2.86-2.18-2.86-4.81 0-2.09.32-4.92 3.03-4.92 1.14 0 1.92.73 2.09 1.42h.04v-1.17h1.81v9.09c0 2.32-.99 3.73-3.57 3.73-2.84 0-3.16-1.67-3.16-2.45h1.81zm1.35-2.42c1.49 0 1.65-1.88 1.65-3.39s-.2-3.28-1.53-3.28-1.62 1.42-1.62 3.19c0 1.63.07 3.48 1.49 3.48zm9.28-11.32h1.53v13.17h-1.53zm10.14 12.92v-9.12h-2.61v-1.31h.2c1.21 0 2.59-.3 2.96-1.88v-.25h1.47v12.56zm4.08-3.39h1.92v.34c0 .94.51 1.77 1.65 1.77 1.42 0 1.79-1.38 1.79-2.86s-.39-2.68-1.69-2.68c-.85 0-1.46.46-1.65 1.15l-1.79-.07.62-6.58h6.05v1.62h-4.54l-.41 3.3.04.04c.55-.62 1.28-.98 2.11-.98 2.63 0 3.28 2.22 3.28 4.15 0 2.52-1.15 4.44-3.87 4.44-2.25 0-3.51-1.15-3.51-3.37zm11.81-6.16h1.81v1.12h.05c.48-.85 1.38-1.37 2.29-1.37 1.37 0 1.93.66 2.22 1.46.55-.92 1.26-1.46 2.41-1.46 1.35 0 2.32.69 2.32 2.54v7.26h-1.92v-6.55c0-1.26-.37-1.72-1.15-1.72s-1.53.6-1.53 1.86v6.41h-1.92v-6.55c0-1.26-.37-1.72-1.17-1.72s-1.51.62-1.51 1.86v6.41h-1.92v-9.55zm14.7 10.37c0 .59.53 1.14 1.38 1.14.99 0 1.62-.67 1.62-1.79v-1.54h-.04c-.35.83-1.24 1.31-2.17 1.31-2.22 0-2.86-2.18-2.86-4.81 0-2.09.32-4.92 3.03-4.92 1.14 0 1.92.73 2.09 1.42h.04v-1.17h1.81v9.09c0 2.32-.99 3.73-3.57 3.73-2.84 0-3.16-1.67-3.16-2.45h1.81zm1.34-2.42c1.49 0 1.65-1.88 1.65-3.39s-.2-3.28-1.53-3.28-1.62 1.42-1.62 3.19c0 1.63.07 3.48 1.49 3.48zm-299.49-47.15c-2.58 4.23-3.5 9.33-3.5 14.29s1.11 9.71 3.5 14.3h-1.53c-3.03-4.1-4.65-9.23-4.65-14.29s1.59-10.12 4.65-14.29h1.53zm2.32.7h2.67v4.97h2.96v2.1h-2.96v10.95c0 1.37.35 1.91 1.75 1.91.6 0 .89-.06 1.18-.1v2.2c-.35.1-1.05.19-2.17.19-2.8 0-3.44-1.15-3.44-3.37v-11.78h-2.48v-2.1h2.48v-4.97zm7.28-.7h2.67v3.06h-2.67zm0 5.67h2.67v17.06h-2.67zm5.57 0h2.67v2.55h.06c.76-1.62 1.75-2.99 3.69-2.99.54 0 .92.06 1.18.19v2.61c-.25-.03-.57-.13-1.43-.13-1.34 0-3.5 1.24-3.5 4.04v10.79h-2.67zm8.97 0h10.28v2.23l-7.64 12.54h7.58v2.29h-10.6v-2.1l7.74-12.67h-7.35v-2.29zm14.31 8.85c0 2.64 0 6.56 3.28 6.56 2.55 0 2.9-2.64 2.9-3.95h2.67c0 1.81-1.05 6.05-5.73 6.05-4.2 0-5.92-2.87-5.92-8.76 0-4.23.83-9.2 6.08-9.2s5.7 4.52 5.7 8.21v1.08h-8.98zm6.17-2.1v-.92c0-1.91-.57-4.17-2.96-4.17-2.8 0-3.12 3.44-3.12 4.46v.64h6.08zm5.16-6.75h2.55v2.1h.06c.35-1.27 1.85-2.55 3.69-2.55 4.04 0 5.57 3.57 5.57 8.66 0 3.88-1.15 9.3-5.57 9.3-1.53 0-2.96-.89-3.57-2.39h-.06v7.55h-2.67zm5.95 15.22c2.45 0 3.12-2.58 3.12-7 0-3.76-.67-6.37-3.12-6.37-2.93 0-3.44 2.77-3.44 6.69 0 3.31.54 6.69 3.44 6.69zm7.9-10.06c0-3.85 1.66-5.6 5.73-5.6 5.19 0 5.19 3.12 5.19 4.9v9.52c0 .73-.03 1.37.83 1.37.35 0 .51-.06.64-.16v1.91c-.22.03-.89.16-1.56.16-.99 0-2.32 0-2.42-2.2h-.06c-.86 1.53-2.48 2.45-4.11 2.45-3.18 0-4.65-1.91-4.65-4.97 0-2.42 1.02-4.04 3.22-4.71l3.6-1.08c1.97-.6 1.94-1.18 1.94-2.58 0-1.62-.96-2.52-2.74-2.52-2.93 0-2.93 2.71-2.93 3.34v.16h-2.67zm8.25 2.61c-1.05 1.05-3.34 1.21-4.55 2.01-.86.54-1.31 1.21-1.31 2.71 0 1.75.6 2.93 2.42 2.93s3.44-1.46 3.44-3.25v-4.39zm6.72-12.74h2.67v4.97h2.96v2.1h-2.96v10.95c0 1.37.35 1.91 1.75 1.91.6 0 .89-.06 1.18-.1v2.2c-.35.1-1.05.19-2.17.19-2.8 0-3.44-1.15-3.44-3.37v-11.78h-2.48v-2.1h2.48v-4.97zm7.28-.7h2.67v3.06h-2.67zm0 5.67h2.67v17.06h-2.67zm16.94 17.06h-2.55v-2.1h-.06c-.35 1.27-1.85 2.55-3.69 2.55-4.04 0-5.57-3.63-5.57-8.98 0-3.57.54-8.98 5.38-8.98 1.53 0 3.15.89 3.76 2.39h.06v-7.61h2.67zm-5.95-1.84c2.93 0 3.44-2.77 3.44-6.69 0-3.31-.54-6.69-3.44-6.69-2.45 0-3.12 2.61-3.12 6.69s.67 6.69 3.12 6.69zm11.1-6.37c0 2.64 0 6.56 3.28 6.56 2.55 0 2.9-2.64 2.9-3.95h2.67c0 1.81-1.05 6.05-5.73 6.05-4.2 0-5.92-2.87-5.92-8.76 0-4.23.83-9.2 6.08-9.2s5.7 4.52 5.7 8.21v1.08h-8.98zm6.18-2.1v-.92c0-1.91-.57-4.17-2.96-4.17-2.8 0-3.12 3.44-3.12 4.46v.64h6.08zm2.93 16.17c2.58-4.23 3.5-9.33 3.5-14.3s-1.11-9.71-3.5-14.29h1.53c3.02 4.11 4.65 9.23 4.65 14.29s-1.59 10.12-4.65 14.3zm16.14-28.59h2.67v3.06h-2.67zm0 5.67h2.67v17.06h-2.67zm5.58 0h2.55v2.01h.06c.73-1.56 2.48-2.45 4.14-2.45 4.49 0 4.49 3.37 4.49 5.41v12.1h-2.67v-11.78c0-1.31-.1-3.44-2.52-3.44-1.43 0-3.38.99-3.38 3.44v11.78h-2.67v-17.06zm16.84 18.72c0 2.8-1.15 4.2-4.08 4.2-.41 0-.83-.06-1.24-.1v-2.29c.35.03.64.1.99.1 1.66 0 1.66-1.24 1.66-2.87v-17.77h2.67v18.72zm0-21.33h-2.67v-3.06h2.67zm5.2 11.46c0 2.64 0 6.56 3.28 6.56 2.55 0 2.9-2.64 2.9-3.95h2.67c0 1.81-1.05 6.05-5.73 6.05-4.2 0-5.92-2.87-5.92-8.76 0-4.23.83-9.2 6.08-9.2s5.7 4.52 5.7 8.21v1.08h-8.98zm6.18-2.1v-.92c0-1.91-.57-4.17-2.96-4.17-2.8 0-3.12 3.44-3.12 4.46v.64h6.08zm13.42-1.56c0-1.66-.67-3.53-2.71-3.53-1.66 0-3.34.83-3.34 7.07 0 2.2.03 6.69 3.25 6.69 2.29 0 2.8-2.42 2.8-4.27h2.67c0 2.67-1.34 6.37-5.6 6.37s-5.92-2.87-5.92-8.76c0-4.23.83-9.2 6.08-9.2 4.68 0 5.44 3.69 5.44 5.64h-2.67zm6.13-10.16h2.67v4.97h2.96v2.1h-2.96v10.95c0 1.37.35 1.91 1.75 1.91.6 0 .89-.06 1.18-.1v2.2c-.35.1-1.05.19-2.17.19-2.8 0-3.44-1.15-3.44-3.37v-11.78h-2.48v-2.1h2.48v-4.97zm7.28-.7h2.67v3.06h-2.67zm0 5.67h2.67v17.06h-2.67zm11.13-.45c4.94 0 6.14 4.17 6.14 8.98s-1.24 8.98-6.14 8.98-6.14-4.17-6.14-8.98 1.21-8.98 6.14-8.98zm3.34 8.98c0-3.69-.51-6.88-3.41-6.88-2.71 0-3.28 3.18-3.28 6.88s.54 6.88 3.28 6.88 3.41-3.18 3.41-6.88zm5.03-8.53h2.55v2.01h.06c.73-1.56 2.48-2.45 4.14-2.45 4.49 0 4.49 3.37 4.49 5.41v12.1h-2.67v-11.78c0-1.31-.1-3.44-2.52-3.44-1.43 0-3.38.99-3.38 3.44v11.78h-2.67v-17.06zm-210.86-76.69c0 2.47-1.87 4.33-4.34 4.33s-4.33-1.86-4.33-4.33 1.86-4.33 4.33-4.33 4.34 1.86 4.34 4.33zm-4.34 2.36c1.31 0 2.3-1.02 2.3-2.36s-.99-2.36-2.3-2.36-2.3 1.02-2.3 2.36 1.01 2.36 2.3 2.36zm7.73-6.45v1.01c.36-.52 1.12-1.24 2.46-1.24 1.86 0 3.23 1.37 3.23 3.2v5.23h-1.97v-4.67c0-1.07-.79-1.87-1.84-1.87s-1.87.8-1.87 1.87v4.67h-1.97v-8.2h1.97zm7.07 4.09c0-2.47 1.86-4.33 4.33-4.33 1.89 0 3.42 1.09 4.04 2.71l-1.97.58c-.36-.8-1.13-1.32-2.08-1.32-1.29 0-2.3 1.02-2.3 2.36s1.01 2.36 2.3 2.36c.94 0 1.72-.52 2.08-1.32l1.97.58c-.63 1.62-2.16 2.71-4.04 2.71-2.47 0-4.33-1.86-4.33-4.33zm13.52-4.33c2.42 0 4.3 1.86 4.3 4.33 0 .24-.03.49-.06.72h-6.5c.3 1.05 1.23 1.79 2.39 1.79.79 0 1.48-.33 1.92-.87l1.9.55c-.74 1.29-2.14 2.12-3.82 2.12-2.52 0-4.42-1.86-4.42-4.33s1.86-4.33 4.3-4.33zm-2.25 3.53h4.52c-.31-1.02-1.21-1.72-2.3-1.72-1.02 0-1.92.69-2.22 1.72zm13.24-3.29 1.56 5.15 1.56-5.15h1.78l1.56 5.15 1.56-5.15h1.97l-2.66 8.18h-1.76l-1.54-4.93-1.56 4.93h-1.76l-2.68-8.18h1.98zm14.71-.24c2.42 0 4.3 1.86 4.3 4.33 0 .24-.03.49-.06.72h-6.5c.3 1.05 1.23 1.79 2.39 1.79.79 0 1.48-.33 1.92-.87l1.9.55c-.74 1.29-2.14 2.12-3.82 2.12-2.52 0-4.42-1.86-4.42-4.33s1.86-4.33 4.3-4.33zm-2.25 3.53h4.52c-.31-1.02-1.21-1.72-2.3-1.72-1.02 0-1.92.69-2.22 1.72zm11.8-3.53c2.42 0 4.3 1.86 4.3 4.33 0 .24-.03.49-.06.72h-6.5c.3 1.05 1.23 1.79 2.39 1.79.79 0 1.48-.33 1.92-.87l1.9.55c-.74 1.29-2.14 2.12-3.82 2.12-2.52 0-4.42-1.86-4.42-4.33s1.86-4.33 4.3-4.33zm-2.25 3.53h4.52c-.31-1.02-1.21-1.72-2.3-1.72-1.02 0-1.92.69-2.22 1.72zm9.87-6.91v7.15l2.74-3.53h2.38l-3.07 3.95 3.4 4.23h-2.41l-3.04-3.81v3.81h-1.97v-11.8zm6.43 0h1.97v11.8h-1.97zm4.96 3.62 2.09 5.52 2.14-5.52h2.03l-3.7 9.25c-.69 1.73-1.78 2.47-3.57 2.47h-.31v-1.87h.31c.99 0 1.56-.38 1.9-1.26l.22-.58-3.15-8.01h2.03z" fill="#fff"/><path d="m17.54 32.56h-15.97c-.66 0-1.2-.54-1.2-1.2v-5.5c0-.66.54-1.2 1.2-1.2h26.68c.66 0 1.2.54 1.2 1.2v4.57c0 .39-.13.76-.38 1.06l-17.21 21.27h16.73c.66 0 1.2.54 1.2 1.2v5.5c0 .66-.54 1.2-1.2 1.2h-27.37c-.66 0-1.2-.54-1.2-1.2v-4.58c0-.39.13-.76.37-1.06l17.14-21.27zm33.66-8.93c10.66 0 18.9 8.17 18.9 19.04 0 .69-.06 1.41-.14 2.13-.07.6-.58 1.06-1.19 1.06h-27.53c1.32 4.64 5.4 7.89 10.52 7.89 3.2 0 6.04-1.24 7.98-3.29.3-.32.76-.44 1.19-.31l6.12 1.77c.78.23 1.13 1.15.66 1.82-3.42 4.89-9.16 7.97-15.95 7.97-11.08 0-19.45-8.17-19.45-19.04s8.17-19.04 18.9-19.04zm-9.9 15.51h19.87c-1.38-4.5-5.33-7.55-10.11-7.55-4.5 0-8.45 3.05-9.76 7.55zm34.31-14.47h6.26c.66 0 1.2.54 1.2 1.2v1.71c2.91-2.49 6.72-3.95 10.87-3.95 9.97 0 17.58 8.17 17.58 19.04s-7.62 19.04-17.58 19.04c-4.15 0-7.96-1.45-10.87-3.95v17.29c0 .66-.54 1.2-1.2 1.2h-6.26c-.66 0-1.2-.54-1.2-1.2v-49.19c0-.66.54-1.2 1.2-1.2zm7.59 18c0 5.88 4.22 10.38 9.62 10.38s9.69-4.5 9.69-10.38-4.22-10.38-9.69-10.38-9.62 4.5-9.62 10.38z" fill="#0593f0"/><path d="m349.82 30.65c0-.43.35-.78.78-.78.21 0 .41.09.55.23l11.3 11.3c.32.32.52.77.52 1.26s-.2.94-.52 1.26l-11.3 11.3c-.14.14-.34.23-.55.23-.43 0-.78-.35-.78-.78zm-15.29 24.03c0 .43.35.78.78.78.21 0 .41-.09.55-.23l11.3-11.3c.32-.32.52-.77.52-1.26s-.2-.94-.52-1.26l-11.3-11.3c-.14-.14-.34-.23-.55-.23-.43 0-.78.35-.78.78zm-15.29 0c0 .43.35.78.78.78.21 0 .41-.09.55-.23l11.3-11.3c.32-.32.52-.77.52-1.26s-.2-.94-.52-1.26l-11.3-11.3c-.14-.14-.34-.23-.55-.23-.43 0-.78.35-.78.78zm-144.12-31.05c-10.87 0-19.04 8.17-19.04 19.04s8.17 19.04 19.04 19.04 19.11-8.17 19.11-19.04-8.24-19.04-19.11-19.04zm-10.11 19.04c0-5.88 4.43-10.38 10.11-10.38s10.11 4.5 10.11 10.38-4.36 10.38-10.11 10.38-10.11-4.5-10.11-10.38zm110.07 0c0 10.87 7.55 19.04 17.52 19.04 4.22 0 7.96-1.45 10.94-3.95v1.71c0 .66.54 1.2 1.2 1.2h6.19c.66 0 1.2-.54 1.2-1.2v-49.53c0-.66-.54-1.2-1.2-1.2h-6.19c-.66 0-1.2.54-1.2 1.2v17.63c-2.98-2.49-6.72-3.95-10.94-3.95-9.97 0-17.52 8.17-17.52 19.04zm18.62-10.39c5.47 0 9.69 4.5 9.69 10.38s-4.22 10.38-9.69 10.38-9.69-4.5-9.69-10.38 4.29-10.38 9.69-10.38zm-158.88-8.65c-4.15 0-7.96 1.45-10.87 3.95v-17.64c0-.66-.54-1.2-1.2-1.2h-6.26c-.66 0-1.2.54-1.2 1.2v25.39l6.08 6.08c.32.32.52.77.52 1.26s-.2.94-.52 1.26l-6.08 6.08v9.47c0 .66.54 1.2 1.2 1.2h6.26c.66 0 1.2-.54 1.2-1.2v-1.71c2.91 2.49 6.72 3.95 10.87 3.95 9.97 0 17.58-8.17 17.58-19.04s-7.62-19.04-17.58-19.04zm-1.1 29.42c-5.4 0-9.62-4.5-9.62-10.38s4.22-10.38 9.62-10.38 9.69 4.5 9.69 10.38-4.22 10.38-9.69 10.38zm97.94-8.16v-19.03c0-.66-.54-1.2-1.2-1.2h-6.26c-.66 0-1.2.54-1.2 1.2v19.03c0 4.64-3.89 8.39-8.58 8.16-4.39-.22-7.76-4-7.76-8.39v-18.79c0-.66-.54-1.2-1.2-1.2h-6.26c-.66 0-1.2.54-1.2 1.2v18.67c0 9.15 7.16 16.9 16.31 17.17 9.51.28 17.33-7.37 17.33-16.82zm4.98-4.45v19.03c0 .66.54 1.2 1.2 1.2h6.26c.66 0 1.2-.54 1.2-1.2v-19.03c0-4.64 3.89-8.39 8.58-8.16 4.39.22 7.76 4 7.76 8.39v18.79c0 .66.54 1.2 1.2 1.2h6.26c.66 0 1.2-.54 1.2-1.2v-18.67c0-9.15-7.16-16.9-16.31-17.17-9.51-.28-17.33 7.37-17.33 16.82zm82.6-31.67h2.98c1.31 0 2.31.92 2.31 2.14 0 .84-.47 1.54-1.19 1.89l1.39 2.36h-1.51l-1.22-2.09h-1.41v2.09h-1.36v-6.4zm1.36 1.24v1.81h1.63c.52 0 .9-.39.9-.9s-.39-.9-.9-.9h-1.63zm1.13-4.22c3.41 0 6.17 2.77 6.17 6.17s-2.77 6.17-6.17 6.17-6.18-2.77-6.18-6.17 2.77-6.17 6.18-6.17zm5.36 6.18c0-2.97-2.41-5.37-5.37-5.37s-5.37 2.4-5.37 5.37 2.41 5.37 5.37 5.37 5.37-2.41 5.37-5.37z" fill="#79de00"/><g fill="#fff"><path d="m10.74 167.02h-6.81l-1.3 4.05h-2.63l5.93-17.57h2.91l5.93 17.57h-2.73zm-6.11-2.07h5.41l-2.68-8.24h-.05z"/><path d="m25.47 153.65v15.09h7.65v2.33h-10.28v-17.42z"/><path d="m38.3 153.73v2.51h-2.68v-2.51zm-.11 4.94v12.39h-2.47v-12.39z"/><path d="m44.41 152.97v18.1h-2.47v-18.1z"/><path d="m50.63 152.97v18.1h-2.47v-18.1z"/><path d="m55.65 158.67 3.12 9.68h.03l2.99-9.68h2.5l-4.16 12.16c-1.09 2.98-2 4.37-4.97 4.37h-1.01v-1.91h.49c1.48 0 2.21-.47 2.6-1.67l.18-.55-4.32-12.39h2.55z"/><path d="m75.76 153.65 4.84 13.6h.05l4.79-13.6h3.77v17.42h-2.5v-14.33h-.05l-5.1 14.36h-2.03l-5.12-14.36h-.05v14.33h-2.34v-17.42h3.75z"/><path d="m97.93 171.41c-3.64 0-5.38-2.22-5.38-5.54v-1.83c0-3.35 1.95-5.7 5.23-5.7s5.1 2.33 5.1 5.54v1.57h-7.96v.71c0 1.94.91 3.24 3.04 3.24 1.8 0 2.68-.94 2.68-2.14v-.08h2.21v.16c0 2.33-1.77 4.08-4.92 4.08zm-3.02-7.48h5.59v-.31c0-1.99-.83-3.29-2.73-3.29s-2.86 1.31-2.86 3.37v.24z"/><path d="m115.88 152.97v18.1h-2.08l-.18-2.22c-.86 1.41-2.03 2.54-4.06 2.54-2.68 0-4.32-2.07-4.32-5.07v-2.88c0-3.01 1.72-5.05 4.37-5.05 1.93 0 2.99.99 3.8 2.12v-7.53h2.47zm-8.19 10.59v2.61c0 1.88.99 3.24 2.73 3.24 1.59 0 2.99-1.41 2.99-3.4v-2.28c0-1.99-1.41-3.43-2.99-3.43-1.74 0-2.73 1.36-2.73 3.24z"/><path d="m122.15 153.73v2.51h-2.68v-2.51zm-.1 4.94v12.39h-2.47v-12.39z"/><path d="m132.93 166.78v-.08h2.29v.29c0 2.43-1.61 4.42-4.84 4.42-3.41 0-5.28-2.17-5.28-5.67v-1.67c0-3.5 1.98-5.73 5.31-5.73s4.81 1.93 4.81 4.44v.29h-2.29v-.1c0-1.41-.7-2.59-2.52-2.59s-2.86 1.36-2.86 3.48v2.07c0 2.12.94 3.45 2.84 3.45 1.8 0 2.55-1.15 2.55-2.59z"/><path d="m140.65 153.73v2.51h-2.68v-2.51zm-.1 4.94v12.39h-2.47v-12.39z"/><path d="m146.32 158.67.21 2.35c.99-1.6 2.24-2.64 4.21-2.64 2.24 0 3.64 1.54 3.64 3.97v8.71h-2.5v-8.29c0-1.39-.73-2.3-2.11-2.3-1.74 0-3.07 1.57-3.07 3.09v7.5h-2.47v-12.39h2.08z"/><path d="m162.61 171.41c-3.64 0-5.38-2.22-5.38-5.54v-1.83c0-3.35 1.95-5.7 5.23-5.7s5.1 2.33 5.1 5.54v1.57h-7.96v.71c0 1.94.91 3.24 3.04 3.24 1.8 0 2.68-.94 2.68-2.14v-.08h2.21v.16c0 2.33-1.77 4.08-4.92 4.08zm-3.02-7.48h5.59v-.31c0-1.99-.83-3.29-2.73-3.29s-2.86 1.31-2.86 3.37v.24z"/></g></svg>